<?xml version="1.0" encoding="UTF-8" standalone="no"?>
<!-- Generator: Adobe Illustrator 19.2.1, SVG Export Plug-In . SVG Version: 6.00 Build 0)  -->

<svg
   xmlns:dc="http://purl.org/dc/elements/1.1/"
   xmlns:cc="http://creativecommons.org/ns#"
   xmlns:rdf="http://www.w3.org/1999/02/22-rdf-syntax-ns#"
   xmlns:svg="http://www.w3.org/2000/svg"
   xmlns="http://www.w3.org/2000/svg"
   xmlns:sodipodi="http://sodipodi.sourceforge.net/DTD/sodipodi-0.dtd"
   xmlns:inkscape="http://www.inkscape.org/namespaces/inkscape"
   version="1.1"
   id="Layer_1"
   x="0px"
   y="0px"
   viewBox="0 0 411.5 121.9"
   style="enable-background:new 0 0 411.5 121.9;"
   xml:space="preserve"
   inkscape:version="0.91 r13725"
   sodipodi:docname="download-button-blank.svg"
   inkscape:export-filename="/Users/logg/wip/fenics-web/source/_themes/fenics-bootstrap/static/download-button-2016.1.png"
   inkscape:export-xdpi="90"
   inkscape:export-ydpi="90"><metadata
     id="metadata4846"><rdf:RDF><cc:Work
         rdf:about=""><dc:format>image/svg+xml</dc:format><dc:type
           rdf:resource="http://purl.org/dc/dcmitype/StillImage" /></cc:Work></rdf:RDF></metadata><defs
     id="defs4844" /><sodipodi:namedview
     pagecolor="#ffffff"
     bordercolor="#666666"
     borderopacity="1"
     objecttolerance="10"
     gridtolerance="10"
     guidetolerance="10"
     inkscape:pageopacity="0"
     inkscape:pageshadow="2"
     inkscape:window-width="1119"
     inkscape:window-height="652"
     id="namedview4842"
     showgrid="false"
     inkscape:zoom="2.0267315"
     inkscape:cx="85.236745"
     inkscape:cy="60.950001"
     inkscape:window-x="0"
     inkscape:window-y="0"
     inkscape:window-maximized="0"
     inkscape:current-layer="Layer_1" /><style
     type="text/css"
     id="style4512">
	.st0{fill:#C6C6C6;}
	.st1{fill:#EAEAEA;}
	.st2{fill:#FF6600;}
	.st3{fill:#803300;}
	.st4{font-family:'MyriadPro-Regular';}
	.st5{font-size:44.22px;}
	.st6{font-size:19.18px;}
	.st7{fill:#5D5D5D;}
	.st8{font-size:17.48px;}
	.st9{fill:none;stroke:#FFFFFF;stroke-miterlimit:10;}
</style><title
     id="title4514">btn_Fencis-download</title><path
     class="st0"
     d="M35,15h341.5c19.3,0,35,15.7,35,35v32c0,19.3-15.7,35-35,35H35c-19.3,0-35-15.7-35-35V50C0,30.6,15.7,15,35,15z  "
     id="path4516" /><path
     class="st1"
     d="M35,10h341.5c19.3,0,35,15.7,35,35v32c0,19.3-15.7,35-35,35H35C15.7,112,0,96.3,0,77V45C0,25.6,15.7,10,35,10z"
     id="path4518" /><rect
     x="298"
     class="st2"
     width="74.5"
     height="121.9"
     id="rect4520" /><polygon
     class="st3"
     points="298,0 298,10 288,10 "
     id="polygon4522" /><polygon
     class="st3"
     points="288,116.9 298,116.9 298,121.9 "
     id="polygon4524" /><text
     transform="translate(50.83,60.96)"
     class="st4 st5"
     id="text4526"
     style="font-size:44.22000122px;font-family:MyriadPro-Regular"><tspan
       style="-inkscape-font-specification:sans-serif;font-family:sans-serif;font-weight:normal;font-style:normal;font-stretch:normal;font-variant:normal;font-size:40px"
       id="tspan4848">DOWNLOAD</tspan></text>
<text
     class="st4 st6"
     id="text4534"
     style="font-size:19.18000031px;font-family:MyriadPro-Regular"
     x="52.830002"
     y="84.129997"><tspan
       style="font-style:normal;font-variant:normal;font-weight:normal;font-stretch:normal;font-size:17.5px;font-family:sans-serif;-inkscape-font-specification:sans-serif"
       id="tspan4850">FEniCS 2016.1</tspan></text>
<text
     class="st7 st4 st8"
     id="text4536"
     style="font-size:17.47999954px;font-family:MyriadPro-Regular;fill:#5d5d5d"
     x="52.830002"
     y="103.05"><tspan
       style="font-size:17.5px"
       id="tspan4852">Windows / Mac / Linux</tspan></text>
<path
     class="st9"
     d="M358,89c-0.8,0.6-1.6,1.1-2.4,1.6l-4.8,3c-0.1-0.2-0.1-0.4,0-0.6c0.5-1.7,0.9-3.4,1.4-5.2c0-0.1,0-0.2,0-0.2  c-0.8,0.6-1.5,1.1-2.2,1.7l-2.9,2.3c-0.1,0.1-0.2,0.2-0.3,0.2h-0.1c0,0-0.1,0-0.1-0.1c-0.4-1-0.6-2-0.9-3c-0.3-0.8-0.5-1.7-0.7-2.5  c-0.1-0.4-0.1-0.4-0.5-0.3c-1.5,0.5-2.9,1.1-4.4,1.6c-0.1,0.1-0.3,0.1-0.4,0l2.4-4.8c0,0,0.1,0,0.1,0c0.8,0.7,1.5,1.5,2.3,2.3  c0.1,0.1,0.3,0.3,0.4,0.4c0.3-1.7,0.6-3.3,0.9-5c0,0,0-0.1,0.1-0.1c0.1-0.1,0.1-0.1,0.2-0.1c0.6,0,1.3,0.1,1.9,0.1l3.6,0.3  c0.2,0,0.3,0,0.5,0.1c0,0,0.1,0.1,0.1,0.1c-0.1,0.2-0.2,0.3-0.4,0.4l-6.1,4.1c-0.1,0.1-0.2,0.1-0.3,0.3c0.5,0.2,1,0.3,1.6,0.4  l5.1,1.1c0.2,0,0.4,0,0.6,0.1h0.1c0.6,0.3,1.3,0.5,1.9,0.7c1.1,0.4,2.3,0.7,3.4,1.1L358,89z"
     id="path4558" /><path
     class="st9"
     d="M308.7,57.8c0.2-0.5,0.5-0.9,0.8-1.4l3.1-5.2c0,0,0.1,0,0.1,0c0.1,0.1,0.2,0.3,0.2,0.5c0.7,2.2,1.4,4.4,2.1,6.5  c0.1,0.4,0.1,0.4,0.5,0.2c1.9-1,3.7-2,5.6-2.9c0.1-0.1,0.3-0.2,0.5-0.2c0.1,0.2,0,0.4-0.1,0.5c-1.1,2.2-2.3,4.4-3.4,6.7  c-0.1,0.1-0.1,0.2-0.2,0.4c0,0,0,0.1,0,0.1c0,0-0.1,0-0.1,0h-0.1c-0.8-1.2-1.6-2.4-2.4-3.6c-0.1-0.2-0.2-0.3-0.3-0.4  c-0.1,0-0.2,0-0.2-0.1c-1.9-0.3-3.8-0.6-5.6-1C309.1,57.9,308.9,57.9,308.7,57.8z"
     id="path4560" /><path
     class="st9"
     d="M329.4,87.6l-0.1,0.1c0,0-0.1,0-0.1,0c-0.6-0.1-1.3-0.1-1.9-0.2l-4.8-0.4c-0.7-0.1-1.4-0.1-2.1-0.2  c-0.2,0-0.3,0-0.5-0.1c0,0-0.1-0.1-0.1-0.1c0-0.1,0.1-0.2,0.3-0.3c1-0.5,2.1-1.1,3.1-1.6c0.9-0.5,1.7-0.9,2.6-1.4  c0.1,0,0.2-0.1,0.2-0.2c-0.3-0.1-0.7-0.2-1-0.2c-1.7-0.3-3.3-0.7-5-1c-0.2,0-0.4-0.1-0.6-0.2c0,0,0-0.1,0-0.1  c0.1-0.2,0.2-0.3,0.4-0.3l4.9-2.5c0.5-0.3,1.1-0.6,1.6-0.8s0.5-0.1,0.5,0.3c0,0.8-0.1,1.7-0.2,2.5c-0.1,0.7-0.1,1.5-0.1,2.2  c0.1,0.3,0.2,0.5,0.3,0.7c0.7,1.1,1.5,2.2,2.2,3.3C329.4,87.3,329.4,87.5,329.4,87.6z"
     id="path4562" /><path
     class="st9"
     d="M329.4,56.5l-2.6-5.1l0,0c0.1,0,0.2,0,0.3,0c2.1,0.8,4.2,1.4,6.3,2.2c1.7,0.9,3.4,1.8,5.1,2.7  c0.1,0.1,0.2,0.1,0.3,0.2c0,0,0,0.1,0,0.1c0,0,0,0.1-0.1,0.1c-1.4,1.1-2.9,2.1-4.4,3.2c-0.7,0.5-1.5,1.1-2.2,1.6c-0.1,0-0.1,0-0.2,0  c0,0,0,0,0-0.1c0-0.2,0-0.4,0-0.6c0.4-2.1,0.7-4.3,1.1-6.5c0-0.1,0-0.2,0-0.3c-0.2,0.1-0.3,0.2-0.4,0.3l-3,2.1  C329.7,56.5,329.6,56.6,329.4,56.5z"
     id="path4564" /><path
     class="st9"
     d="M303.9,72c-0.1-0.1-0.1-0.2,0-0.3l2.3-8.9c0,0,0-0.1,0.1-0.1l0.1,0c0.7,0.5,1.4,0.8,2.1,1.2  c1.2,0.7,2.5,1.3,3.6,2c0,0,0,0.1,0,0.1c0,0,0,0.1,0,0.1c-0.5,0.5-1.1,0.9-1.7,1.3c-2,1.4-4.1,2.8-6.1,4.2c-0.1,0.1-0.2,0.1-0.3,0.2  C304.1,71.9,304,72,303.9,72z"
     id="path4566" /><path
     class="st9"
     d="M321.7,55.4l-4.1,2.1l-2.2,1.2c-0.1,0.1-0.2,0.1-0.3-0.1c-0.8-2.5-1.6-4.9-2.4-7.4c0.1-0.1,0.3,0,0.4,0  c2,0.9,3.9,1.8,5.9,2.7c0.7,0.3,1.3,0.6,2,0.9c0.2,0.1,0.4,0.2,0.7,0.4c0.1,0,0.1,0.1,0.1,0.2C321.8,55.4,321.8,55.4,321.7,55.4  C321.7,55.4,321.7,55.4,321.7,55.4z"
     id="path4568" /><path
     class="st9"
     d="M332.2,97L332.2,97c0.1-0.1,0.1-0.1,0.2-0.1l5.6,2.3c0.3,0.1,0.4,0.1,0.4-0.2c0.1-1,0.2-2,0.3-3  c0-0.4,0.1-0.9,0.1-1.3c0,0,0-0.1,0-0.1c0,0,0.1-0.1,0.1-0.1h0.1l5.2,2.2c0.2,0,0.4,0.1,0.5,0.3l-7.2,3c-1.3,0.5-2.6,1-3.8,1.6  l-0.3,0.1c-0.1-0.1-0.2-0.2-0.2-0.3c-0.3-1.3-0.7-2.5-1-3.7C332.1,97.3,332.1,97.1,332.2,97z"
     id="path4570" /><path
     class="st9"
     d="M348.8,45c1.5,1.5,2.9,3,4.4,4.6l0,0c-0.2,0-0.3,0-0.5-0.1l-5.6-2.3c-0.1,0-0.1-0.1-0.2,0  c0.1,0.6,0.2,1.3,0.3,2c0.1,0.9,0.2,1.8,0.4,2.8c0,0.1,0,0.2,0,0.3c0,0,0,0.1-0.1,0.1c-0.8-0.4-1.6-0.8-2.3-1.2l-4.3-2.4  c-0.3-0.1-0.5-0.3-0.8-0.5c0,0,0-0.1,0-0.1c0,0,0-0.1,0.1-0.1c0.3-0.1,0.7-0.2,1-0.2c1.8-0.3,3.7-0.6,5.5-0.9  c0.3-0.2,0.6-0.4,0.9-0.7c0.4-0.3,0.7-0.6,1-0.9C348.6,45.1,348.7,45,348.8,45z"
     id="path4572" /><path
     class="st9"
     d="M327,33.5L327,33.5c1.1-0.8,2.3-1.3,3.4-1.9c1.5-0.8,3-1.6,4.6-2.5c-0.7-0.1-1.4-0.2-2-0.2  c-0.5,0-0.9-0.1-1.4-0.1c-0.1,0-0.2,0-0.2-0.1l3.4-3.2l1.7-1.6l0.3-0.2c0.1,0.2,0.1,0.4,0,0.5c-0.4,1.6-0.8,3.2-1.2,4.8  c-0.2,1.1-0.4,2.2-0.5,3.4c0,0.2-0.1,0.3-0.2,0.5c0,0-0.1,0.1-0.1,0.1c-1.3,0.2-2.6,0.3-3.9,0.5c-1.1,0.1-2.1,0.2-3.2,0.3  c-0.1,0-0.3,0-0.4,0C327.1,33.6,327,33.6,327,33.5z"
     id="path4574" /><path
     class="st9"
     d="M360.5,58.3c0.1,0.3,0.2,0.6,0.1,0.9c-0.1,0.9-0.1,1.7-0.1,2.6s-0.1,1.5-0.1,2.2c0,0.1,0,0.2-0.1,0.3  c-0.1,0.4-0.1,0.4-0.5,0.2l-6.9-4.2c-0.1,0-0.1-0.1-0.1-0.1c0,0,0-0.1,0-0.1c0.8-0.3,1.7-0.4,2.5-0.6c1.7-0.4,3.4-0.8,5-1.2  C360.4,58.2,360.5,58.3,360.5,58.3C360.5,58.3,360.5,58.3,360.5,58.3z"
     id="path4576" /><path
     class="st9"
     d="M303.9,72c0-0.1,0-0.2,0.1-0.2c0.1-0.1,0.3-0.1,0.5,0c2.3,0.2,4.6,0.4,6.8,0.6c0.2,0,0.5,0.1,0.7,0.1  c0.2,0.2,0,0.3-0.2,0.4c-0.6,0.4-1.3,0.7-1.9,1.1c-1.7,1-3.4,1.9-5,2.9h-0.1c-0.2-0.5-0.3-1-0.3-1.5C304.3,74.3,304.1,73.2,303.9,72  z"
     id="path4578" /><path
     class="st9"
     d="M335.1,66.8c-0.1,0-0.1-0.1-0.1-0.1c0-0.1,0.1-0.2,0.1-0.2c1.1-1.1,2.1-2.3,3.3-3.4c0.1-0.1,0.2-0.3,0.4-0.1  c0.4,0.8,0.8,1.7,1.1,2.6c0.6,1.4,1.2,2.7,1.7,4.1c0.1,0.1,0.1,0.3,0.1,0.5c0,0,0,0.1-0.1,0.1c-0.1,0-0.2,0-0.3-0.1  C339.3,69,337.2,67.9,335.1,66.8z"
     id="path4580" /><path
     class="st9"
     d="M321.7,55.4h0.1l2.7,3.7c0.1,0.1,0.2,0.2,0.2,0.3l0,0c-0.6,0.4-1.3,0.7-1.9,1c-1.5,0.8-2.9,1.6-4.4,2.4  c-0.1,0.1-0.3,0.2-0.4,0.1c0-0.1,0-0.2,0.1-0.3l3.5-6.9C321.6,55.6,321.7,55.5,321.7,55.4z"
     id="path4582" /><path
     class="st9"
     d="M335.5,75c0.2,0.8,0.2,1.6,0.3,2.4c0.1,0.4,0.1,0.8,0.1,1.2c-0.2,0.1-0.3,0.2-0.5,0.2c-1.3,0.1-2.5,0.2-3.8,0.3  h-0.2c-1-0.1-2-0.4-3-0.6l-1.2-0.3c-0.2,0-0.4-0.1-0.6-0.2c0,0,0-0.1,0-0.1c0.6-0.4,1.2-0.8,1.7-1.2c0.9-0.7,1.8-1.4,2.7-2.1  c0.1-0.1,0.3-0.2,0.4-0.2c0,0,0.1,0,0.1,0.1c0,0.7,0,1.4-0.1,2s0,1.5-0.1,2.3c0.5-0.5,1-0.9,1.5-1.4c0.7-0.6,1.3-1.3,2-2  c0.1-0.1,0.2-0.2,0.3-0.3L335.5,75L335.5,75z"
     id="path4584" /><path
     class="st9"
     d="M319.6,81.7L319.6,81.7c0.1,0.7,0.1,1.3,0.1,1.9c0.1,0.8,0.1,1.6,0.2,2.3c0,0.2,0,0.4,0,0.6  c0,0.1-0.1,0.2-0.3,0.3c-0.8-0.1-1.6-0.2-2.4-0.4c-1.5-0.2-3-0.5-4.5-0.8c-0.2,0-0.3-0.1-0.5-0.2c0,0,0,0,0,0  c0.1-0.2,0.2-0.3,0.4-0.3c1.9-1,3.9-1.9,5.8-2.9l1.1-0.5C319.5,81.7,319.6,81.7,319.6,81.7z"
     id="path4586" /><path
     class="st9"
     d="M339.6,87.6l2.4-0.9l2.6-0.9c0.1,0,0.3-0.1,0.3,0.1c0.6,2,1.1,4,1.7,6c-0.1,0-0.1,0-0.2,0  c-1.8-1-3.6-2.2-5.4-3.2c-0.5-0.3-0.9-0.5-1.4-0.8c0,0,0-0.1-0.1-0.1L339.6,87.6z"
     id="path4588" /><path
     class="st9"
     d="M319.5,81.8c-0.1,0.1-0.2,0.2-0.3,0.2l-6.6,3.3l-0.4,0.2l-0.1,0c-0.1-0.3-0.2-0.6-0.2-0.9  c-0.1-1-0.2-2.1-0.3-3.1c-0.1-0.2,0-0.5,0.2-0.6c0.2,0,0.5,0,0.7,0l6.4,0.8C319.1,81.6,319.3,81.6,319.5,81.8L319.5,81.8z"
     id="path4590" /><path
     class="st9"
     d="M353.2,49.6L353.2,49.6c0.1,0.2,0.1,0.3,0.2,0.4c0.3,1.6,0.7,3.2,1,4.8c0.1,0.1,0.1,0.3,0,0.4  c-0.1,0.1-0.3,0.1-0.4,0l-6.1-2.7c-0.2,0-0.3-0.1-0.4-0.2c0-0.1,0.1-0.3,0.3-0.3l5.1-2.2C352.9,49.7,353.1,49.6,353.2,49.6  L353.2,49.6L353.2,49.6L353.2,49.6z"
     id="path4592" /><path
     class="st9"
     d="M306.3,62.8L306.3,62.8l2.3-4.8c0-0.1,0.1-0.2,0.2-0.3l4.5,0.8l1.5,0.3c0.1,0,0.2,0,0.2,0.1  c-0.1,0.2-0.3,0.3-0.5,0.3c-1.8,0.8-3.5,1.6-5.2,2.4c-0.9,0.4-1.7,0.8-2.5,1.1C306.6,62.8,306.4,62.9,306.3,62.8z"
     id="path4594" /><path
     class="st9"
     d="M329.4,87.6l-2.7-4.1c-0.1-0.1-0.2-0.2-0.1-0.3l0,0c0.8-0.2,1.7-0.3,2.5-0.4l4-0.6c0.1,0,0.3,0,0.4,0  c0,0,0.1,0,0.1,0.1l-3,3.8L329.4,87.6z"
     id="path4596" /><path
     class="st9"
     d="M346.5,91.7l0.1,0.1l0,0c0,0.1,0,0.3-0.1,0.4c-0.5,1.3-1,2.7-1.5,4.1c-0.1,0.2-0.1,0.4-0.3,0.5l-5.3-2.2  c-0.2,0-0.3-0.1-0.4-0.2c0.1-0.1,0.2-0.2,0.3-0.2c0.2-0.1,0.4-0.1,0.5-0.2C342.1,93.3,344.3,92.5,346.5,91.7z"
     id="path4598" /><path
     class="st9"
     d="M323.3,42.5L323.3,42.5c0.2-0.4,0.4-0.6,0.7-0.8c1.7-1.4,3.3-2.8,5-4.1c0.1-0.1,0.2-0.2,0.2-0.3  c0-0.1,0.1-0.1,0.1-0.1c0.1,0,0.1,0,0.2,0c0.1,0,0.2,0,0.2,0.1c-0.2,0.2-0.2,0.4-0.3,0.7c-0.1,1.5-0.3,3.1-0.4,4.6  c0,0.2-0.1,0.4-0.2,0.5c-0.1,0.1-0.3,0.1-0.4,0.1l-4.8-0.6C323.6,42.6,323.4,42.5,323.3,42.5z"
     id="path4600" /><path
     class="st9"
     d="M365.9,81.9c0,0.1,0,0.1-0.1,0.1c-0.8,0.4-1.7,0.6-2.5,0.8l-3.3,1c-0.2,0.1-0.3,0.1-0.5,0.1c0,0-0.1,0-0.1-0.1  c-0.2-0.6-0.3-1.2-0.5-1.7c-0.2-0.8-0.4-1.6-0.7-2.4c-0.1-0.2-0.1-0.4-0.1-0.5c0.1-0.1,0.3-0.1,0.4,0c2,0.7,4,1.5,6,2.2  c0.3,0.2,0.7,0.3,1.1,0.3C365.9,81.8,365.9,81.9,365.9,81.9z"
     id="path4602" /><path
     class="st9"
     d="M366.2,68L366.2,68v0.1c-0.1,0.1-0.3,0.2-0.4,0.2c-1.6,0.7-3.3,1.3-4.9,2l-0.2,0.1c-0.3,0.1-0.4,0-0.4-0.3  c0-0.1,0-0.2,0-0.4c0-1.6,0-3.2,0-4.8c0-0.1,0-0.1,0.1-0.2c0,0,0.1,0,0.1,0c1.8,1,3.6,2,5.5,3C366,67.8,366.1,67.9,366.2,68z"
     id="path4604" /><path
     class="st9"
     d="M343.6,39.5L343.6,39.5c0.3,0.5,0.5,0.9,0.7,1.4c0.7,1.8,1.5,3.5,2.2,5.3c0.1,0.2,0.2,0.4,0.1,0.5  c-0.2,0.1-0.3,0-0.4-0.1c-0.7-0.6-1.4-1.2-2.2-1.9c-1.4-1.2-2.7-2.3-4.1-3.5c-0.1,0-0.1-0.1-0.2-0.1c0,0,0-0.1,0-0.1  c0,0,0-0.1,0-0.1c0.4-0.2,0.9-0.4,1.3-0.5c0.6-0.3,1.3-0.5,1.9-0.7C343.2,39.5,343.4,39.5,343.6,39.5z"
     id="path4606" /><path
     class="st9"
     d="M332.2,97c0.3,1,0.6,2,0.9,3.1c0.1,0.5,0.3,1,0.4,1.5l-4.7,1.3l-1.7,0.5l1.5-1.8L332.2,97z"
     id="path4608" /><path
     class="st9"
     d="M335.3,28.9l1-3.9c0.1-0.5,0.2-0.9,0.3-1.4l0.1-0.1c0.2-0.1,0.3-0.1,0.5,0c1.4,0.4,2.9,0.8,4.3,1.3  c0.2,0,0.3,0.1,0.4,0.2c0,0.2-0.2,0.3-0.3,0.3l-5.8,3.5C335.7,28.9,335.6,29,335.3,28.9C335.4,29,335.3,28.9,335.3,28.9  C335.3,28.9,335.3,28.9,335.3,28.9z"
     id="path4610" /><path
     class="st9"
     d="M338.8,63c-0.1,0-0.2,0.1-0.3,0.2l-3.1,3.2c-0.1,0.1-0.2,0.2-0.3,0.3c-1-1.7-2-3.5-3-5.2l0.1-0.1  c2.2,0.5,4.3,1,6.5,1.4h0.1C338.8,62.8,338.8,62.9,338.8,63L338.8,63z"
     id="path4612" /><path
     class="st9"
     d="M326.8,51.5l-2.4-5.1c0.1-0.1,0.2-0.3,0.3-0.3l3.6-2.5c0.2-0.1,0.3-0.4,0.6-0.2c0,0.3-0.1,0.6-0.2,0.9  c-0.6,2.3-1.2,4.6-1.8,6.9C326.9,51.2,326.9,51.3,326.8,51.5L326.8,51.5L326.8,51.5L326.8,51.5L326.8,51.5z"
     id="path4614" /><path
     class="st9"
     d="M331.4,68.3c0,0,0.1,0.1,0.1,0.1l0,0c-0.6,0.2-1.2,0.4-1.9,0.6c-1,0.3-1.9,0.6-2.9,0.9h-0.1c0,0-0.1,0-0.1,0  c0,0,0-0.1,0-0.1c-0.5-1.6-1-3.3-1.6-4.9c-0.1-0.2-0.1-0.3-0.1-0.5c0,0,0-0.1,0-0.1c0,0,0.1,0,0.1,0c1.8,1.1,3.7,2.2,5.5,3.3  C330.7,67.8,331,68.1,331.4,68.3z"
     id="path4616" /><path
     class="st9"
     d="M335.4,29l3.8-2.3l2.7-1.6l-1.9,5.6c0,0-0.1,0-0.1,0c-1.4-0.5-2.9-1-4.3-1.5C335.5,29.2,335.2,29.2,335.4,29z"
     id="path4618" /><path
     class="st9"
     d="M335.1,66.8c0.5,0.1,0.9,0.4,1.3,0.6c1.7,0.9,3.4,1.8,5.1,2.6c0.1,0,0.2,0.1,0.2,0.1c0.1,0.1,0,0.2-0.1,0.3  c-0.8,0.9-1.8,1.7-2.6,2.5c0,0-0.1,0-0.1,0l-2.5-4.1L335.1,66.8z"
     id="path4620" /><path
     class="st9"
     d="M346.7,91.8l2.2-1.8l3.4-2.7c-0.1,0.5-0.2,0.8-0.3,1.2l-1.3,4.8c0,0.1,0,0.2,0,0.3l0,0  c-0.4-0.1-0.9-0.3-1.3-0.5c-0.8-0.4-1.7-0.7-2.5-1.1C346.9,92.1,346.7,92,346.7,91.8z"
     id="path4622" /><path
     class="st9"
     d="M321.7,55.2c-0.3,0-0.6-0.2-0.9-0.3c-1.7-0.8-3.5-1.6-5.2-2.4c-1-0.4-1.9-0.9-2.9-1.3h-0.1c0-0.1,0-0.1,0.1-0.1  c1.8-0.2,3.7-0.3,5.5-0.4L321.7,55.2z"
     id="path4624" /><path
     class="st9"
     d="M329.4,56.5c0.8-0.5,1.5-1,2.3-1.6l1.8-1.2l-0.3,1.6l-1,5.7c0,0.1-0.1,0.3-0.1,0.4l-1.9-3.4  C329.9,57.5,329.7,57,329.4,56.5z"
     id="path4626" /><path
     class="st9"
     d="M329.2,87.7L329.2,87.7l-2.7,3.1l-1.7,1.8c-0.1,0.1-0.1,0.2-0.3,0.1l-3.3-1.5v0c0.4-0.3,0.9-0.5,1.4-0.7  c2-0.9,4.1-1.8,6.2-2.7C329,87.6,329.1,87.6,329.2,87.7z"
     id="path4628" /><path
     class="st9"
     d="M329.3,37.2v0.1c-0.1,0.1-0.3,0.2-0.5,0.2l-5.1,1c-0.2,0.1-0.3,0.1-0.5,0l3.1-4.1l0.6-0.8l0,0  c0.7,1.1,1.4,2.2,2.2,3.2C329.3,36.9,329.3,37,329.3,37.2z"
     id="path4630" /><path
     class="st9"
     d="M341.9,25.1L341.9,25.1c-0.3-0.2-0.6-0.3-1-0.4c-1.4-0.4-2.8-0.8-4.2-1.2l2.4-2.3l1.6-1.5  c0.1,0.1,0.2,0.2,0.2,0.4c0.4,1.6,0.8,3.2,1.1,4.8L341.9,25.1z"
     id="path4632" /><path
     class="st9"
     d="M339,73l2.5-2.6c0.1-0.1,0.2-0.2,0.3-0.4l0,0c0,0,0.1,0,0.1,0c0.1,0.1,0.1,0.2,0.1,0.3c0,2.7,0,5.4,0,8.1  c0,0.1,0,0.2,0,0.3c0,0.1,0,0.2-0.1,0.3c0-0.2-0.1-0.5-0.2-0.7l-2.5-5C339,73.2,339,73.1,339,73z"
     id="path4634" /><path
     class="st9"
     d="M339.9,30.7L339.9,30.7c0.2,1.5,0.1,3,0.2,4.6c0,0-0.1,0-0.1,0c-0.7-0.2-1.4-0.6-2-0.9c-1-0.5-2-1-3-1.4  c-0.1,0-0.1-0.1-0.2-0.1c-0.1-0.3,0.1-0.3,0.3-0.3l2-0.8l2.5-1C339.6,30.7,339.8,30.7,339.9,30.7z"
     id="path4636" /><path
     class="st9"
     d="M323.3,38.5l5.7-1.1l0.4,0c-0.4,0.4-0.8,0.8-1.2,1.1c-0.9,0.8-1.9,1.6-2.8,2.4l-2,1.7c-0.1-0.9,0-1.8,0-2.7  C323.3,39.2,323.3,38.9,323.3,38.5z"
     id="path4638" /><path
     class="st9"
     d="M346.7,91.8l3.7,1.7c0.1,0,0.2,0.1,0.3,0.2l-5.9,3.1c0.2-0.7,0.5-1.4,0.7-2.1C345.9,93.8,346.3,92.8,346.7,91.8  L346.7,91.8L346.7,91.8z"
     id="path4640" /><path
     class="st9"
     d="M338.9,94.5C338.9,94.5,338.9,94.5,338.9,94.5c-0.1,0.2-0.3,0.3-0.5,0.3c-1.9,0.7-3.8,1.4-5.7,2.1  c-0.1,0.1-0.3,0.1-0.4,0h-0.1l3.9-4.8c0.3,0.1,0.6,0.3,0.9,0.6c0.6,0.5,1.2,1,1.8,1.5C338.8,94.2,338.9,94.3,338.9,94.5z"
     id="path4642" /><path
     class="st9"
     d="M318.2,50.6c-0.2,0.1-0.3,0.2-0.5,0.1c-1.4,0.1-2.9,0.2-4.3,0.4c-0.2,0.1-0.5,0-0.7-0.1c0.8-1.3,1.6-2.6,2.4-4  c0.1-0.2,0.2-0.2,0.3,0L318.2,50.6z"
     id="path4644" /><path
     class="st9"
     d="M360.4,64.8L360.4,64.8c-0.1-0.2-0.1-0.4-0.1-0.6c0.1-1.5,0.1-3,0.2-4.5c0-0.4,0.1-0.9,0.1-1.3  c0.4,0.4,0.7,0.9,1,1.4c0.8,1.1,1.5,2.1,2.3,3.2c0,0.1-0.1,0.2-0.3,0.2c-1,0.5-1.9,1-2.9,1.5C360.7,64.8,360.5,64.8,360.4,64.8z"
     id="path4646" /><path
     class="st9"
     d="M360.4,64.8l3.5-1.8l2.1,4.5c0.1,0.1,0.1,0.3,0.2,0.5l-5.1-2.8C360.8,65.1,360.6,65,360.4,64.8z"
     id="path4648" /><path
     class="st9"
     d="M340.8,19.8l5.6-4.8l0,0l-0.9,2.2l-1.5,3.5c-0.1,0.1-0.3,0.1-0.4,0c-0.8-0.2-1.7-0.5-2.5-0.7  C340.9,20,340.7,20,340.8,19.8z"
     id="path4650" /><path
     class="st9"
     d="M307.6,81.5c-0.5-0.6-0.8-1.3-1.2-1.9c-0.6-0.9-1.1-1.8-1.6-2.6l0,0c0.1-0.1,0.3,0,0.4,0.1l6.1,3.4  c0.2,0,0.3,0.2,0.4,0.4c-0.1,0.1-0.3,0.2-0.4,0.2l-3.2,0.6C307.9,81.6,307.8,81.6,307.6,81.5z"
     id="path4652" /><path
     class="st9"
     d="M346.6,46.8c-0.1-0.5-0.3-1-0.6-1.4c-0.8-1.8-1.5-3.6-2.3-5.5c0-0.1-0.1-0.2-0.1-0.3c0.7,0.7,1.4,1.4,2.1,2.1  l2.9,3l0.1,0.2c-0.4,0.3-0.8,0.6-1.1,0.9C347.4,46.2,347,46.5,346.6,46.8C346.6,46.8,346.6,46.8,346.6,46.8z"
     id="path4654" /><path
     class="st9"
     d="M338.9,94.5c-0.3-0.3-0.6-0.7-1-0.9c-0.6-0.5-1.2-1-1.8-1.5l3.4-4.3c0,0,0.1,0,0.1-0.1l0,0  c0.1,0.6,0.1,1.2-0.1,1.7c-0.1,1.3-0.2,2.5-0.3,3.8c0,0.3-0.1,0.6-0.1,0.9C339.1,94.2,339.1,94.4,338.9,94.5L338.9,94.5L338.9,94.5z  "
     id="path4656" /><path
     class="st9"
     d="M331.5,68.6l1.7,2.8l2.2,3.5l0,0c-0.1,0-0.3,0-0.4,0c-1-0.2-2-0.4-3-0.6c-0.1,0-0.3-0.1-0.4-0.2l0,0  c0,0,0-0.1-0.1-0.1c0-0.1,0-0.1,0-0.2c0-0.3,0-0.5-0.1-0.8c0-0.3,0-0.5,0-0.8c0-0.3,0-0.5,0-0.8c0-0.3,0-0.5,0-0.8  c0-0.3,0-0.6,0-0.9c0-0.3,0-0.5,0-0.8C331.4,69,331.3,68.7,331.5,68.6z"
     id="path4658" /><path
     class="st9"
     d="M331.3,28.7l4,0.4l-1,0.6l-6.3,3.4c-0.3,0.2-0.5,0.3-0.8,0.4L331.3,28.7z"
     id="path4660" /><path
     class="st9"
     d="M340,35.3L340,35.3c0.4,0.5,0.8,1,1.3,1.5c0.8,0.9,1.5,1.8,2.3,2.8c-0.1,0-0.2,0-0.3,0.1l-3.5,1.3  c-0.1,0-0.1,0-0.1-0.1c0-0.6,0-1.2,0.1-1.8s0.1-1.4,0.1-2c0-0.6,0.1-1.1,0.1-1.6C340,35.4,340,35.3,340,35.3z"
     id="path4662" /><path
     class="st9"
     d="M366.2,68c0.5,1.6,1.1,3.2,1.6,4.8c0,0.1,0,0.3,0,0.4c0,0.9,0,1.7,0,2.6c-0.1,0-0.2-0.1-0.1-0.2  c0-0.9,0-1.8,0-2.6c-0.1,0.1-0.3,0.3-0.4,0.4c-0.8,0.8-1.7,1.5-2.5,2.3c-0.1,0.1-0.2,0.2-0.3,0.1c-0.1-0.1-0.1-0.3,0-0.4  c0.5-2.3,1-4.6,1.5-6.9C366,68.3,366.1,68.2,366.2,68L366.2,68z"
     id="path4664" /><path
     class="st9"
     d="M328.9,43.2c-0.5,0.3-1,0.6-1.5,1c-1,0.7-2,1.4-3,2.1c-0.4-1.3-0.8-2.5-1.1-3.8c0.8,0,1.5,0.2,2.3,0.3  c0.8,0.1,1.7,0.2,2.5,0.3C328.4,43.1,328.6,43.1,328.9,43.2L328.9,43.2L328.9,43.2z"
     id="path4666" /><path
     class="st9"
     d="M307.6,81.5l2.3-0.4c0.6-0.1,1.2-0.2,1.8-0.4c0,0,0-0.1,0.1-0.1h0.1c0,0,0.1,0.1,0.1,0.1  c-0.3,0.2-0.1,0.4-0.1,0.6c0.1,1,0.2,2,0.3,2.9c0.1,0.3,0.1,0.7,0.1,1C310.6,84.1,309.1,82.8,307.6,81.5z"
     id="path4668" /><path
     class="st9"
     d="M312.3,85.5c0.7,0,1.3,0.2,2,0.3l4.8,0.8c0.2,0.1,0.4,0.1,0.5,0.1c0.1,0,0.2,0,0.3,0.1c0,0,0,0.1,0,0.1  c-1,0.6-1.9,1.1-2.9,1.7c-0.1,0.1-0.3,0.1-0.4,0.1l-4-2.8L312.3,85.5z"
     id="path4670" /><path
     class="st9"
     d="M365.9,81.9l-0.1-0.1c-0.1-0.1-0.2-0.2-0.2-0.3c-0.4-1.7-0.8-3.5-1.2-5.2c0-0.1,0-0.2,0-0.4  c0.2-0.2,0.3,0,0.5,0c0.7,0.4,1.4,0.8,2.1,1.2c0.3,0.1,0.6,0.3,0.8,0.5C367.2,79.1,366.5,80.5,365.9,81.9z"
     id="path4672" /><path
     class="st9"
     d="M331.4,68.3c-0.7-0.3-1.3-0.8-2-1.1l-4.2-2.5c-0.1,0-0.2-0.1-0.3-0.2c0.1-0.1,0.2-0.2,0.3-0.2l2.6-0.6  c0.1,0,0.2,0,0.3,0C329.2,65.2,330.3,66.8,331.4,68.3z"
     id="path4674" /><path
     class="st9"
     d="M362.4,85.7c-1.5,1.1-2.9,2.3-4.5,3.3l0,0c-0.1-0.1-0.1-0.2,0-0.3c0.5-1.5,0.9-3,1.4-4.5c0,0,0-0.1,0-0.1  c0,0,0.1-0.1,0.1-0.1c0.5,0.1,0.9,0.3,1.3,0.6c0.5,0.2,0.9,0.5,1.4,0.8C362.3,85.4,362.4,85.5,362.4,85.7z"
     id="path4676" /><path
     class="st9"
     d="M328,63.7c-0.8,0.3-1.6,0.4-2.4,0.6c-0.3,0.1-0.5,0.1-0.8,0.2h-0.1c-0.1-0.1-0.1-0.3-0.1-0.5c0-1.4,0-2.7,0-4.1  c0-0.2,0-0.3,0.1-0.5l0,0c0,0,0,0,0.1,0L328,63.7z"
     id="path4678" /><path
     class="st9"
     d="M354.3,55.2c0-0.4-0.1-0.9-0.2-1.3c-0.2-1.3-0.5-2.6-0.8-3.9c0-0.1-0.1-0.2,0.1-0.1l3.8,4.4  c-0.1,0.1-0.2,0.3-0.4,0.3c-0.8,0.3-1.6,0.6-2.4,0.8C354.4,55.3,354.4,55.3,354.3,55.2C354.3,55.3,354.3,55.2,354.3,55.2  C354.3,55.2,354.3,55.2,354.3,55.2z"
     id="path4680" /><path
     class="st9"
     d="M316.6,88.6c0.7-0.3,1.3-0.8,2-1.1c0.4-0.3,0.8-0.5,1.3-0.7c0.1,0.1,0.2,0.2,0.2,0.3c0.4,1.2,0.8,2.4,1.2,3.6  c0,0.1,0.1,0.2,0.1,0.3l0,0C319.8,90.3,318.2,89.5,316.6,88.6z"
     id="path4682" /><path
     class="st9"
     d="M362.4,85.7c-0.6-0.4-1.2-0.7-1.8-1c-0.4-0.2-0.7-0.4-1.1-0.6l0,0l0,0c0.2,0,0.3,0,0.5-0.1l5.6-1.8  c0.1-0.1,0.2-0.1,0.3,0L362.4,85.7z"
     id="path4684" /><path
     class="st9"
     d="M340.8,19.8c0,0.2,0.2,0.2,0.4,0.2l2.8,0.8l-2,4.2c-0.2-0.2-0.2-0.4-0.2-0.6c-0.3-1.4-0.7-2.9-1-4.3  C340.7,20,340.7,19.9,340.8,19.8L340.8,19.8z"
     id="path4686" /><path
     class="st9"
     d="M341.8,79v-0.2c0.1-0.1,0.1-0.1,0.2,0l3.6,1.3c0,0,0.1,0.1,0.1,0.1c0,0,0,0.1,0,0.2l0,0  c-0.1,0.1-0.2,0.2-0.3,0.3c-1,0.7-2,1.3-3,2c-0.1,0.1-0.2,0.2-0.4,0.1l0,0L341.8,79z"
     id="path4688" /><path
     class="st9"
     d="M367.8,77.6l-2.9-1.6l-0.4-0.2l0,0l0,0l3.3-3c0,0.9,0,1.8,0,2.6c0,0.1,0,0.3,0,0.4L367.8,77.6L367.8,77.6z"
     id="path4690" /><path
     class="st9"
     d="M331.5,79l4.1-0.4h0.3c-0.5,1-1.1,1.9-1.7,2.8c-0.2,0.3-0.3,0.5-0.5,0.8l0,0c-0.1,0-0.2-0.1-0.2-0.2l-2-2.7  c0-0.1-0.1-0.1-0.1-0.2C331.4,79.1,331.5,79,331.5,79z"
     id="path4692" /><path
     class="st9"
     d="M354.4,55.2l2.3-0.9c0.2,0,0.3-0.1,0.5-0.2l3.4,4.2h-0.1c-0.3,0-0.6-0.2-0.9-0.4c-1.4-0.8-2.9-1.5-4.4-2.2  C354.9,55.6,354.6,55.5,354.4,55.2z"
     id="path4694" /><path
     class="st9"
     d="M331.5,68.6c-0.1,0.2-0.1,0.3-0.1,0.5c-0.2-0.1-0.2-0.4-0.1-0.6c0,0,0,0,0,0l0,0  C331.4,68.5,331.5,68.5,331.5,68.6z"
     id="path4696" /><path
     class="st9"
     d="M353.4,49.8c-0.1,0-0.1,0.1-0.1,0.1c-0.1-0.1-0.1-0.2-0.1-0.3L353.4,49.8z"
     id="path4698" /><path
     class="st9"
     d="M345.8,80.4v-0.1c-0.1-0.2-0.2-0.5-0.2-0.8c-0.3-1.9-0.6-3.8-0.9-5.6c0,0,0-0.1,0-0.1c0,0,0.1,0,0.1-0.1  c0.7,0,1.4,0.1,2.1,0.1c1.1,0.1,2.2,0.1,3.4,0.3c0.6,0,1.1,0.1,1.6,0.2c0.2,0.2,0,0.3-0.1,0.4c-0.8,0.7-1.5,1.5-2.2,2.1  c-0.1,0.1-0.3,0.3-0.4,0.4c-1,1-2,1.9-3,2.9C346,80.1,345.9,80.2,345.8,80.4L345.8,80.4z"
     id="path4700" /><path
     class="st9"
     d="M352.4,87.2c-0.6,0-1.2-0.1-1.7-0.3c-1.8-0.4-3.6-0.8-5.4-1.2l-0.3-0.1l2.4-1.6l4.6-3c0.2,0,0.2,0.2,0.2,0.4  c0.1,1.9,0.2,3.7,0.3,5.6C352.5,87,352.5,87.2,352.4,87.2z"
     id="path4702" /><path
     class="st9"
     d="M352.4,87.2c-0.1-1.3-0.2-2.7-0.3-4c0-0.6-0.1-1.3-0.1-1.9c0-0.1,0-0.3-0.1-0.4c0,0,0,0,0-0.1l0,0  c0.1,0,0.1,0,0.2,0c2.3,1,4.6,2,6.9,2.9c0.2,0,0.3,0.1,0.4,0.2l0,0v0.1l0,0c-0.3,0.2-0.6,0.4-1,0.5c-1.6,0.7-3.2,1.5-4.7,2.2  c-0.3,0.2-0.6,0.3-1,0.4C352.6,87.3,352.5,87.3,352.4,87.2L352.4,87.2z"
     id="path4704" /><path
     class="st9"
     d="M345.9,80.3c0.5-0.5,1-1.1,1.6-1.6c1.3-1.2,2.5-2.4,3.8-3.6l0.8-0.8c0,0,0.1,0,0.1,0c0,0,0,0,0,0  c0.1,0.1,0.1,0.3,0.1,0.5c0,1.9-0.1,3.7-0.1,5.6c0,0.1,0,0.3-0.1,0.4l0,0l-5.4-0.5L345.9,80.3z"
     id="path4706" /><path
     class="st9"
     d="M352.5,87.3l4.7-2.2l2.3-1l-1.4,4.5c0,0.1-0.1,0.3-0.1,0.4c-0.4,0-0.8-0.1-1.1-0.3c-1.4-0.4-2.7-0.8-4-1.3  C352.7,87.5,352.5,87.5,352.5,87.3z"
     id="path4708" /><path
     class="st9"
     d="M342.1,82.8l3.7-2.4c-0.1,0.7-0.2,1.4-0.3,2.1c-0.1,0.9-0.3,1.8-0.5,2.7c0,0.1-0.1,0.2-0.1,0.3L342.1,82.8z"
     id="path4710" /><path
     class="st9"
     d="M306.3,62.8l8.7-3.9c0,0,0.1-0.1,0.2,0c0,0.1,0,0.3,0,0.4c-0.9,2.3-1.8,4.5-2.7,6.8c0,0.1-0.1,0.1-0.2,0.1  l-5.8-3.1C306.3,62.9,306.3,62.9,306.3,62.8z"
     id="path4712" /><path
     class="st9"
     d="M317.9,63L317.9,63c0.2-0.1,0.4-0.1,0.5,0l5.9,1.3c0.1,0,0.2,0.1,0.3,0.1c0.2,0.2,0,0.3-0.1,0.4l-2.2,1.6  l-3.8,2.7c-0.2,0.2-0.4,0.3-0.6,0.3c0,0,0-0.1-0.1-0.1c0-0.2,0-0.3,0-0.5c0-1.7,0-3.5,0-5.2C317.8,63.4,317.8,63.2,317.9,63z"
     id="path4714" /><path
     class="st9"
     d="M317.9,63c0,2.1,0,4.3,0,6.4c0,0,0,0.1,0,0.1h-0.1c-1.6-0.9-3.3-1.8-4.9-2.7c-0.3-0.1-0.6-0.3-0.8-0.5l0,0  l0.2-0.1c0.5-0.3,1-0.6,1.6-0.9l3.6-2C317.6,63.1,317.8,63,317.9,63L317.9,63L317.9,63z"
     id="path4716" /><path
     class="st9"
     d="M324.7,64.5l-6.4-1.4L318,63c0,0,0,0,0-0.1l6.4-3.4c0.1-0.1,0.2-0.1,0.4-0.1L324.7,64.5L324.7,64.5L324.7,64.5z  "
     id="path4718" /><path
     class="st9"
     d="M317.9,63l-5.2,2.9c-0.1,0.1-0.2,0.1-0.4,0.2c0.2-0.8,0.6-1.5,0.9-2.3c0.6-1.6,1.3-3.2,2-4.8  c0.1,0,0.2,0.1,0.2,0.2l2.5,3.7C317.8,62.9,317.9,62.9,317.9,63z"
     id="path4720" /><path
     class="st9"
     d="M331.5,79L331.5,79c-0.3,0.4-0.7,0.8-1.1,1.1c-1.1,0.9-2.1,1.8-3.2,2.8c-0.2,0.1-0.3,0.2-0.5,0.3l0,0  c0,0-0.1,0-0.1-0.1c0-0.7,0.1-1.4,0.1-2.1c0-0.4,0-0.8,0.1-1.2c0.1-0.4,0.1-1,0.1-1.4c0-0.3-0.1-0.3-0.3-0.2c-0.5,0.3-1,0.6-1.6,0.8  l-5.1,2.6c-0.1,0.1-0.2,0.1-0.3,0.2h-0.1c-0.1-0.3-0.2-0.6-0.2-0.9c-0.2-1.7-0.5-3.4-0.8-5c0-0.2,0-0.4,0-0.6c0,0,0-0.1,0-0.1  c0,0,0.1-0.1,0.2-0.1c0.5,0.1,0.9,0.2,1.3,0.4c2.1,0.8,4.3,1.5,6.5,2.2c0.2,0,0.3,0.1,0.5,0.2c0.6,0.2,1.1,0.4,1.7,0.4  C329.5,78.6,330.5,78.8,331.5,79z"
     id="path4722" /><path
     class="st9"
     d="M321.4,91.1c-0.4-1-0.7-2-1-3c-0.2-0.5-0.3-0.9-0.4-1.4v0c0,0,0,0,0.1,0l2.2,0.2l3.9,0.3l3,0.2  c0.1,0,0.3-0.1,0.2,0.1l-3.3,1.5L321.4,91.1z"
     id="path4724" /><path
     class="st9"
     d="M319.8,86.5c0-1.3-0.2-2.6-0.3-4c-0.1-0.2-0.1-0.5,0-0.8l6.8,1.4v0.1l-6.4,3.4  C319.8,86.7,319.9,86.6,319.8,86.5z"
     id="path4726" /><path
     class="st9"
     d="M319.8,86.5l0.1,0.2v0.1h-0.1c-0.1,0-0.2,0-0.3-0.1C319.7,86.7,319.8,86.7,319.8,86.5z"
     id="path4728" /><path
     class="st9"
     d="M347.3,52.1L347.3,52.1L347.3,52.1c0.1,0.1,0.1,0.2,0.1,0.4c-0.4,1.8-0.8,3.6-1.1,5.5c0,0.2-0.1,0.4-0.2,0.5  c0,0-0.1,0.1-0.2,0.1c-0.7-0.1-1.4-0.3-2.1-0.5l-4.5-1.3c-0.2,0-0.4-0.1-0.5-0.3c0,0,0,0,0,0v0c0.2-0.2,0.3-0.3,0.5-0.4  c1.7-0.9,3.4-1.8,5.1-2.6c0.8-0.4,1.5-0.8,2.3-1.2C347,52.1,347.1,52.1,347.3,52.1z"
     id="path4730" /><path
     class="st9"
     d="M338.9,56.5l-4-2.1l-1.4-0.7c0,0,0-0.1,0-0.1c0.5-0.5,1-1,1.5-1.4c1-0.9,2.1-1.8,3.1-2.8l1.3-1.2  c0.1-0.2,0.3-0.2,0.4-0.2l0,0c0.1,0.1,0.1,0.3,0,0.4c-0.2,1.7-0.4,3.5-0.6,5.2c-0.1,0.7-0.2,1.5-0.3,2.2  C339,56.1,339,56.3,338.9,56.5L338.9,56.5L338.9,56.5z"
     id="path4732" /><path
     class="st9"
     d="M333.5,53.6C333.5,53.6,333.5,53.7,333.5,53.6l-5.4-1.8c-0.4-0.2-0.9-0.3-1.3-0.4v-0.1c0.3-0.3,0.6-0.5,1-0.7  l5.6-3.8c0.1-0.1,0.2-0.1,0.3-0.1c0.1-0.1,0.2-0.1,0.3,0.1c0,0.7,0,1.5-0.1,2.2c0,0.6-0.1,1.2-0.1,1.7c-0.1,0.9-0.1,1.7-0.2,2.6  C333.6,53.4,333.6,53.5,333.5,53.6z"
     id="path4734" /><path
     class="st9"
     d="M338.9,56.6l6.8,2l0.2,0c0,0.3-0.2,0.3-0.4,0.4c-1.4,0.9-2.8,1.7-4.2,2.5l-2.1,1.2c-0.1,0.1-0.3,0.2-0.5,0.2  h-0.1c-0.1-0.1-0.1-0.3-0.1-0.4c0-1.8,0.1-3.6,0.1-5.5C338.7,56.9,338.7,56.7,338.9,56.6C338.9,56.6,338.9,56.6,338.9,56.6z"
     id="path4736" /><path
     class="st9"
     d="M338.8,56.6l-0.1,6.3c-0.7-0.1-1.4-0.3-2.1-0.4l-4.3-0.9c-0.1,0-0.2,0-0.2-0.1l6.5-4.7L338.8,56.6z"
     id="path4738" /><path
     class="st9"
     d="M312.1,72.6c-0.5-0.1-1.1-0.2-1.7-0.2c-1.8-0.2-3.5-0.3-5.3-0.5l-1.1-0.1c0.5-0.4,1-0.8,1.6-1.1  c2.1-1.4,4.1-2.8,6.2-4.3l0.3-0.2c0.1,0.1,0.1,0.2,0.1,0.3c0,2,0,3.9,0,5.9c0,0,0,0.1,0,0.1C312.2,72.6,312.2,72.6,312.1,72.6  C312.1,72.7,312.1,72.6,312.1,72.6z"
     id="path4740" /><path
     class="st9"
     d="M312.1,72.5c0-2.1,0-4.2,0-6.3v-0.1l5.2,2.9c0.2,0.1,0.4,0.2,0.5,0.4c-0.3,0.2-0.6,0.4-0.9,0.6l-4.5,2.5  C312.4,72.5,312.3,72.6,312.1,72.5C312.2,72.6,312.2,72.5,312.1,72.5z"
     id="path4742" /><path
     class="st9"
     d="M339,94.5c0.1-0.7,0.1-1.4,0.2-2.2c0.1-1.5,0.3-3,0.4-4.5c0,0,0-0.1,0-0.1c0.6,0.3,1.2,0.6,1.7,1  c1.7,1,3.5,2.1,5.2,3.1c-0.1,0.2-0.3,0.3-0.5,0.3l-6.2,2.1L339,94.5L339,94.5L339,94.5z"
     id="path4744" /><path
     class="st9"
     d="M332.3,96.9l6.6-2.4c0.1,0.1,0.1,0.2,0,0.3c-0.1,1.1-0.2,2.2-0.4,3.3c0,0.4-0.1,0.7-0.1,1.1s-0.1,0.3-0.3,0.2  l-1.7-0.7l-3.9-1.6C332.4,97,332.4,97,332.3,96.9z"
     id="path4746" /><path
     class="st9"
     d="M338.9,56.5c0.2-1.3,0.3-2.7,0.5-4s0.3-2.6,0.5-3.9c0-0.2,0-0.3,0.1-0.5c0.7,0.3,1.3,0.7,2,1  c1.2,0.6,2.3,1.3,3.5,1.9c0.7,0.3,1.3,0.7,1.9,1.1L338.9,56.5z"
     id="path4748" /><path
     class="st9"
     d="M346.6,46.8L346.6,46.8c-0.6,0.2-1.3,0.3-2,0.4l-4.6,0.8v0c0-0.1-0.1-0.2-0.1-0.3c0-2.1-0.1-4.1-0.1-6.2  c0-0.2,0-0.3,0.1-0.4l3.6,3.1l2.8,2.4C346.4,46.6,346.5,46.7,346.6,46.8z"
     id="path4750" /><path
     class="st9"
     d="M333.5,53.6c0.1-1.1,0.1-2.3,0.2-3.4c0-0.4,0-0.9,0.1-1.3c0.1-0.7,0.1-1.5,0.1-2.2l0,0c0.2-0.1,0.3-0.1,0.5,0  c1.7,0.4,3.4,0.8,5.1,1.2c0.2,0,0.3,0.1,0.5,0.2l0,0v0.1c-0.4,0.2-0.7,0.4-1,0.7c-1.3,1.1-2.5,2.2-3.7,3.3L333.5,53.6z"
     id="path4752" /><path
     class="st9"
     d="M353.1,49.5c-0.6,0.3-1.1,0.6-1.8,0.8l-3.8,1.7c-0.1,0-0.1,0.1-0.2,0.1l0,0l-0.3-2.5l-0.4-2.8l2.4,1L353.1,49.5  z"
     id="path4754" /><path
     class="st9"
     d="M329.3,37.2l-2.2-3.3c-0.1-0.1-0.1-0.2-0.1-0.3l4.6-0.5l3-0.3c0,0.1-0.1,0.3-0.2,0.3c-1.5,1.3-3,2.6-4.6,3.9  c-0.1,0.1-0.3,0.1-0.4,0.2L329.3,37.2z"
     id="path4756" /><path
     class="st9"
     d="M329.5,37.2l3.8-3.3l1.4-1.2l0,0c0.1,0.1,0.1,0.1,0.2,0.3c0.2,1.2,0.5,2.3,0.6,3.5c0,0.1,0,0.1-0.1,0.2  c-0.1,0.1-0.2,0.1-0.4,0.1c-1.6,0.2-3.3,0.3-4.9,0.5c-0.1,0-0.3,0-0.4-0.1L329.5,37.2z"
     id="path4758" /><path
     class="st9"
     d="M334.7,32.9l-0.1-0.2c0.2-1,0.4-2.1,0.5-3.2c0-0.2,0.1-0.5,0.1-0.7l0.1,0.1c-0.1,0.2,0.1,0.2,0.2,0.2l3.6,1.3  c0.2,0.1,0.5,0.2,0.7,0.3c-1.6,0.6-3.1,1.2-4.7,1.8c-0.1,0.1-0.4,0-0.4,0.3C334.8,32.9,334.8,32.9,334.7,32.9  C334.7,32.9,334.7,32.9,334.7,32.9z"
     id="path4760" /><path
     class="st9"
     d="M360.3,64.2v0.6l-0.1,0.1v0c-0.5,0.4-1.1,0.7-1.7,1c-1.6,0.9-3.1,1.7-4.7,2.5c-0.1,0-0.1,0-0.2,0.1  c-0.1,0-0.1,0-0.2-0.1c0,0,0-0.1,0-0.1c-0.2-2-0.4-4-0.5-5.9c-0.1-0.7-0.1-1.3-0.1-2v0c0.4,0.1,0.7,0.3,1.1,0.6  c2,1.2,3.9,2.4,5.9,3.6c0.4,0.2,0.4,0.3,0.4-0.2C360.3,64.3,360.3,64.2,360.3,64.2z"
     id="path4762" /><path
     class="st9"
     d="M352.9,60.2L352.9,60.2c-0.2,0.4-0.5,0.7-0.9,1c-0.6,0.5-1.2,1.1-1.8,1.7c-1.1,1-2.2,2.1-3.3,3.1  c-0.1,0.1-0.2,0.2-0.3,0.2h0c0,0,0-0.1,0-0.1c-0.2-1.6-0.3-3.1-0.4-4.7c-0.1-0.7-0.1-1.4-0.2-2.1c0-0.2,0-0.4,0-0.5  c0,0,0.1-0.1,0.1-0.1c0.1-0.1,0.3-0.1,0.4,0l6,1.4C352.6,60.1,352.7,60.1,352.9,60.2L352.9,60.2z"
     id="path4764" /><path
     class="st9"
     d="M354.4,55.2l4.1,2.1l2,1c-0.1,0.1-0.3,0.2-0.4,0.2l-6.9,1.7c-0.1,0-0.2,0-0.3,0l0,0c-0.1-0.2-0.1-0.3,0-0.5  c0.4-1.5,0.9-3,1.3-4.4c0,0,0-0.1,0.1-0.1L354.4,55.2L354.4,55.2z"
     id="path4766" /><path
     class="st9"
     d="M312.1,72.6L312.1,72.6c0.2,0.4,0.3,0.8,0.2,1.2c0,0.7-0.1,1.4-0.1,2.1c-0.1,1.2-0.1,2.4-0.2,3.6  c0,0.2,0,0.5,0,0.7c0,0.2,0,0.3-0.1,0.4l0,0c-1.8-1-3.5-2-5.3-2.9c-0.5-0.3-1.1-0.6-1.6-0.9c0.1-0.2,0.3-0.3,0.5-0.4l6.5-3.8  C311.9,72.7,312,72.7,312.1,72.6z"
     id="path4768" /><path
     class="st9"
     d="M341.9,70.1L341.9,70.1c-0.3-0.8-0.7-1.6-1.1-2.4c-0.7-1.6-1.3-3.2-2-4.8l0,0c0.2,0,0.3,0,0.4,0.1l6.8,2.8  c0.2,0,0.4,0.1,0.5,0.3c0,0.1,0,0.3-0.2,0.4c-1.4,1.1-2.7,2.3-4.1,3.5C342.2,70.1,342,70.1,341.9,70.1z"
     id="path4770" /><path
     class="st9"
     d="M326.9,77.9c-1-0.3-1.9-0.6-2.9-0.9c-1.8-0.6-3.6-1.2-5.4-1.8c0,0,0-0.1,0-0.1c0.1-0.1,0.2-0.2,0.3-0.3  c2.4-1.6,4.9-3.1,7.3-4.7c0.1-0.1,0.2-0.1,0.3-0.1h0.1c0.1,0.1,0.2,0.3,0.2,0.5c0,1,0.1,1.9,0.2,2.9c0.1,1.1,0.1,2.2,0.2,3.4  C327.1,77.1,327.1,77.5,326.9,77.9L326.9,77.9z"
     id="path4772" /><path
     class="st9"
     d="M326.9,77.8c0-1.3-0.1-2.6-0.2-3.9c0-0.5,0-1-0.1-1.4c-0.1-0.8-0.1-1.7-0.2-2.5h0.1c0.3,0.1,0.5,0.2,0.7,0.5  l4.1,3.4c0.1,0.1,0.3,0.2,0.4,0.4c0,0,0,0,0,0.1l-4.5,3.5C327.1,77.8,327.1,77.9,326.9,77.8z"
     id="path4774" /><path
     class="st9"
     d="M331.7,74.3l3.7,0.7c-0.9,0.9-1.8,1.8-2.7,2.7c-0.4,0.4-0.8,0.9-1.1,1.3l-0.2-0.1L331.7,74.3z"
     id="path4776" /><path
     class="st9"
     d="M318.4,75.2c0.1,0.4,0.2,0.8,0.2,1.1c0.2,1,0.3,2.1,0.5,3.1c0.1,0.7,0.2,1.5,0.3,2.2l-3.7-0.5l-3.8-0.5  l-0.1-0.1c0-0.1,0.1-0.3,0.2-0.3c2-1.7,4-3.3,5.9-5C318.1,75.3,318.3,75.2,318.4,75.2z"
     id="path4778" /><path
     class="st9"
     d="M354.3,55.2L354.3,55.2c-0.2,0.3-0.4,0.4-0.7,0.4l-6.8,2.8c-0.2,0.1-0.5,0.2-0.7,0.2h-0.1l0,0l0,0l1.3-6.4h0.1  L354.3,55.2L354.3,55.2L354.3,55.2z"
     id="path4780" /><path
     class="st9"
     d="M326.7,83.2c0.4-0.4,0.9-0.8,1.3-1.2c0.6-0.6,1.3-1.1,2-1.7c0.5-0.4,0.9-0.9,1.5-1.2l2.2,3.2l-6.7,1  C326.9,83.2,326.8,83.2,326.7,83.2z"
     id="path4782" /><path
     class="st9"
     d="M329.6,37.3l5.4-0.6c0.1,0,0.2,0,0.2,0.1c0,0.1-0.1,0.2-0.2,0.3l-5.9,5.9c-0.1,0.1-0.1,0.1-0.2,0.2  c0,0-0.1,0-0.1,0l0,0c0.2-1.8,0.3-3.7,0.5-5.5C329.4,37.4,329.5,37.3,329.6,37.3C329.6,37.3,329.6,37.3,329.6,37.3z"
     id="path4784" /><path
     class="st9"
     d="M359.5,84c-1-0.3-1.9-0.8-2.9-1.2c-1.4-0.6-2.7-1.1-4.1-1.7c-0.1,0-0.3-0.1-0.4-0.2c0-0.2,0.2-0.2,0.3-0.2  c1.7-0.5,3.3-0.9,5-1.3c0.2,0,0.3-0.1,0.4-0.1c0-0.1-0.1-0.1-0.1-0.2c-1.8-1.4-3.5-2.9-5.3-4.3c-0.1-0.1-0.3-0.2-0.3-0.4  c0,0,0-0.1,0-0.1c0.4-0.3,0.8-0.5,1.2-0.7c1.2-0.5,2.3-1.1,3.5-1.6c1.2-0.6,2.1-1,3.1-1.5c0.1-0.1,0.2-0.1,0.3-0.1  c0,0,0.1,0.1,0.1,0.1c0,0.1,0,0.3,0,0.4c-0.6,2.6-1.3,5.3-1.9,8c0,0.1-0.1,0.2-0.1,0.3c0,0,0,0.1-0.1,0.1l1.2,4.5  C359.5,83.8,359.5,83.9,359.5,84z"
     id="path4786" /><path
     class="st9"
     d="M358.3,79.3C358.3,79.2,358.3,79.2,358.3,79.3c0.2-0.3,0.5-0.5,0.8-0.6l4.9-2.7c0.1-0.1,0.3-0.2,0.5-0.2  c0,0,0.1,0,0.1,0l0,0c0.3,1.3,0.6,2.5,0.8,3.8c0.2,0.7,0.3,1.5,0.5,2.2c0,0.2-0.1,0.1-0.2,0.1l-6-2.2L358.3,79.3z"
     id="path4788" /><path
     class="st9"
     d="M364.5,75.9L364.5,75.9c-0.2-0.1-0.2-0.1-0.3-0.2c-1.3-1.7-2.5-3.3-3.8-5c-0.1-0.1-0.1-0.1-0.1-0.2l0,0  c0,0-0.1-0.1-0.1-0.1c0-0.1,0-0.2,0-0.3c0-1.5,0-3.1,0-4.6c0-0.2,0-0.3,0.1-0.5l0,0c0.1,0.1,0.1,0.3,0.1,0.4c0,1.6,0,3.2,0,4.8  c0,0.3,0,0.4,0.3,0.2c1.8-0.7,3.7-1.5,5.5-2.2c-0.4,1.7-0.8,3.5-1.2,5.2C364.9,74.2,364.7,75,364.5,75.9L364.5,75.9L364.5,75.9z"
     id="path4790" /><path
     class="st9"
     d="M335.3,36.8c-0.1-0.1-0.1-0.1-0.2-0.1l0.3,0c0.1,0,0.3,0.1,0.4,0.2c1.1,1,2.1,2,3.1,3c0.4,0.3,0.7,0.6,0.9,0.9  l0.1,0.1V41c-0.9,0.9-1.8,1.8-2.7,2.6s-1.6,1.5-2.3,2.2c-0.3,0.3-0.6,0.6-0.9,0.8l0,0l-2.9,1.9l-3,2c-0.4,0.3-0.8,0.6-1.2,0.8  c0.2-1.1,0.5-2.1,0.8-3.1c0.4-1.7,0.9-3.4,1.3-5v-0.1l0,0c0.2,0,0.3,0.1,0.4,0.2c1.3,1,2.7,1.9,4,2.8c0.3,0.2,0.4,0.2,0.4-0.2  c0.4-2.5,0.8-4.9,1.1-7.4C335,38,335.1,37.4,335.3,36.8z"
     id="path4792" /><path
     class="st9"
     d="M333.8,46.7l1.9-1.8l0.2-0.2c0.8-0.8,1.5-1.5,2.3-2.3c0.5-0.4,0.9-0.8,1.3-1.3c0.1-0.1,0.1-0.1,0.2-0.1l0,0  c0,1.5,0,2.9,0,4.4c0,0.9,0,1.8,0,2.6l-3.5-0.8l-2.2-0.5C334,46.6,333.9,46.7,333.8,46.7z"
     id="path4794" /><path
     class="st9"
     d="M346,58.5L346,58.5c0.1,1.2,0.2,2.3,0.2,3.4c0.1,1.4,0.2,2.8,0.3,4.3l0,0l0,0l-4.6-1.9l-3.1-1.3v-0.1l4.8-2.9  l2-1.2c0.1,0,0.2-0.1,0.3-0.2L346,58.5z"
     id="path4796" /><path
     class="st9"
     d="M326.4,70l-7.5,4.9l-0.3,0.2c-0.2,0-0.2-0.2-0.3-0.3c-0.1-1-0.2-2.1-0.3-3.1c-0.1-0.6-0.1-1.2-0.2-1.8  c0-0.1,0-0.3,0.1-0.4v-0.1h0.1c0.5-0.1,0.9-0.1,1.4,0l3.7,0.3l3.1,0.2C326.2,69.8,326.3,69.9,326.4,70C326.4,70,326.4,70,326.4,70z"
     id="path4798" /><path
     class="st9"
     d="M326.4,70l-4.3-0.3l-4.1-0.3l2-1.5l4.5-3.3c0,0,0.1-0.1,0.1-0.1h0.1l1.1,3.6c0.2,0.5,0.3,1.1,0.5,1.6  C326.4,69.8,326.4,69.9,326.4,70z"
     id="path4800" /><path
     class="st9"
     d="M331.7,74.2c-0.6-0.4-1.1-0.9-1.7-1.4l-3.4-2.8c0.6-0.3,1.3-0.4,2-0.6c1-0.3,1.9-0.6,2.9-0.9  c0,0.2,0,0.4,0.1,0.7v0.8c0.1,0.3,0,0.6,0.1,0.9v0.8c0.1,0.3,0,0.5,0,0.8v0.9c0,0.3,0,0.5,0,0.8L331.7,74.2L331.7,74.2z"
     id="path4802" /><path
     class="st9"
     d="M346.6,66.2L346.6,66.2c0.1,0.1,0.1,0.2,0.1,0.4c-0.6,2.3-1.1,4.7-1.7,7c0,0.1-0.1,0.1-0.2,0.2l0,0  c-0.1,0-0.2-0.1-0.3-0.2c-0.8-0.9-1.5-1.8-2.3-2.7c-0.1-0.1-0.2-0.2-0.2-0.4l-0.1-0.2l4.6-3.9C346.5,66.2,346.5,66.2,346.6,66.2z"
     id="path4804" /><path
     class="st9"
     d="M341.9,70.4l2.8,3.3v0.1c0,0.2-0.1,0.4-0.3,0.6c-0.8,1.3-1.5,2.6-2.3,3.9c-0.1,0.2-0.2,0.3-0.3,0.3  c-0.1-0.1-0.1-0.3-0.1-0.4c0-2.5,0-5,0-7.5C341.8,70.6,341.8,70.5,341.9,70.4z"
     id="path4806" /><path
     class="st9"
     d="M341.9,78.6l2.9-4.8c0.2,0.6,0.3,1.3,0.3,1.9c0.2,1.4,0.4,2.7,0.6,4c0,0.1,0,0.3,0,0.5l-3.7-1.4l-0.2-0.1  L341.9,78.6z"
     id="path4808" /><path
     class="st9"
     d="M334.7,32.9c0-0.1,0-0.1,0.1-0.1l5.2,2.5v0.1c-0.1,0.1-0.2,0.2-0.4,0.2c-1.3,0.3-2.6,0.8-3.9,1.1  c-0.1,0-0.3,0.1-0.4-0.1L334.7,32.9z"
     id="path4810" /><path
     class="st9"
     d="M331.6,70.8c-0.1-0.3-0.1-0.6-0.1-0.9C331.6,70.2,331.6,70.5,331.6,70.8z"
     id="path4812" /><path
     class="st9"
     d="M331.7,74.1c-0.1-0.3-0.1-0.5-0.1-0.8C331.7,73.5,331.7,73.8,331.7,74.1z"
     id="path4814" /><path
     class="st9"
     d="M331.6,72.4c-0.1-0.3-0.1-0.5,0-0.8C331.6,71.9,331.7,72.1,331.6,72.4z"
     id="path4816" /><path
     class="st9"
     d="M335.4,36.5c0.1,0.2,0.2,0.1,0.4,0l4.3-1.2c0,1.2-0.1,2.5-0.2,3.7c0,0.6,0,1.2-0.1,1.8c-1.1-0.9-2-2-3.1-3  C336.3,37.4,335.8,37,335.4,36.5L335.4,36.5z"
     id="path4818" /><path
     class="st9"
     d="M318.4,75.2l-4.8,4c-0.6,0.5-1.2,1-1.8,1.5h-0.1c0.1-1.7,0.2-3.5,0.3-5.2c0-1,0.1-2,0.1-2.9v-0.1h0.1  c0.5,0.1,0.9,0.3,1.4,0.5l4.3,1.8C318.1,74.8,318.3,75,318.4,75.2C318.4,75.2,318.4,75.2,318.4,75.2z"
     id="path4820" /><path
     class="st9"
     d="M344.8,73.7l0.1-0.1c2.8-1.7,5.6-3.3,8.3-5c0.1-0.1,0.2-0.1,0.3-0.2c0,0,0.1,0,0.1,0v0.1c0.1,0.1,0.1,0.2,0,0.4  c-0.5,1.8-1,3.7-1.5,5.5v0h-0.1c-0.2-0.1-0.4-0.1-0.6-0.1l-4.2-0.3C346.4,73.9,345.6,73.8,344.8,73.7z"
     id="path4822" /><path
     class="st9"
     d="M352.1,74.4L352.1,74.4l4.3,3.4l1.8,1.5l-5.1,1.3c-0.3,0.1-0.7,0.2-1,0.3H352L352.1,74.4z"
     id="path4824" /><path
     class="st9"
     d="M318.5,75.1c-1.1-0.5-2.2-0.9-3.3-1.4c-1.1-0.5-2-0.8-3-1.2l5.3-3l0.3-0.1h0.1l0.5,4.7c0,0.3,0,0.5,0.1,0.8  c0,0.1,0,0.2,0.1,0.2v0.1L318.5,75.1L318.5,75.1z"
     id="path4826" /><path
     class="st9"
     d="M353.6,68.3L353.6,68.3c-0.2,0.1-0.4,0.1-0.5,0c-1.8-0.6-3.5-1.1-5.3-1.7c-0.2-0.1-0.5-0.1-0.7-0.2  c-0.1,0-0.3-0.1-0.4-0.2l5.4-5.1l0.8-0.7c0.1,0.7,0.2,1.4,0.2,2.1c0.1,1.3,0.2,2.5,0.4,3.8C353.5,66.9,353.5,67.6,353.6,68.3z"
     id="path4828" /><path
     class="st9"
     d="M352.1,74.3c-0.1-0.1,0-0.3,0-0.4c0.5-1.8,1-3.7,1.4-5.5h0.1c0.5,0,0.9,0.2,1.4,0.3l4.8,1.4  c0.2,0,0.3,0.1,0.4,0.2v0.1l-5.2,2.4L352.1,74.3z"
     id="path4830" /><path
     class="st9"
     d="M360.3,70.4l-5.9-1.7l-0.7-0.2l3.8-2c0.9-0.5,1.9-1,2.8-1.5C360.3,66.7,360.3,68.5,360.3,70.4z"
     id="path4832" /><path
     class="st9"
     d="M346.7,66.1l6.8,2.2c-0.2,0.3-0.5,0.5-0.9,0.6c-2.5,1.5-4.9,3-7.4,4.5c-0.1,0.1-0.2,0.1-0.4,0.1l1.3-5.4  L346.7,66.1L346.7,66.1L346.7,66.1z"
     id="path4834" /><path
     class="st9"
     d="M346.1,58.6c0.8-0.4,1.7-0.7,2.5-1.1l5.4-2.2h0.1c-0.1,0.6-0.2,1.1-0.4,1.7c-0.3,1.1-0.6,2.2-0.9,3.3  L346.1,58.6z"
     id="path4836" /><path
     class="st9"
     d="M335.3,36.8c0.2,0.1,0,0.3,0,0.4c-0.2,1.5-0.5,3-0.7,4.6c-0.2,1.5-0.4,3-0.7,4.4c0,0.2,0,0.4-0.3,0.2l-4.6-3.3  L335,37L335.3,36.8z"
     id="path4838" /><path
     class="st9"
     d="M360.3,70.5c0.1,0,0.2,0.1,0.2,0.2l3.9,5.1c0,0,0,0.1,0,0.1l-6.1,3.3c0.3-1.4,0.6-2.7,1-4.1  c0.4-1.4,0.7-2.9,1-4.4C360.3,70.6,360.3,70.5,360.3,70.5z"
     id="path4840" /></svg>